<svg width="34" height="34" viewBox="0 0 34 34" fill="none" xmlns="http://www.w3.org/2000/svg">
<path d="M10.0095 32.2066C9.14418 32.2066 8.30945 31.8626 7.69453 31.247C6.41953 29.972 6.41953 27.8962 7.69453 26.6198L13.1418 21.1725C13.3231 20.9912 13.618 20.9912 13.7993 21.1725C13.9805 21.3538 13.9805 21.6487 13.7993 21.83L8.35195 27.2773C7.43887 28.191 7.43887 29.6765 8.35195 30.5896C8.82211 31.0604 9.47223 31.3088 10.137 31.2729C10.8004 31.2364 11.4199 30.9183 11.8356 30.3997L17.1202 23.8122L14.5523 20.3205C14.4002 20.114 14.4447 19.8225 14.6513 19.6704C14.8584 19.5184 15.1493 19.5628 15.3014 19.7694L18.0811 23.5492C18.206 23.7192 18.2013 23.951 18.0692 24.1157L12.5608 30.9814C11.9797 31.7059 11.1151 32.1508 10.1874 32.2013C10.1277 32.2046 10.0686 32.2066 10.0095 32.2066Z" fill="#3C4D56"/>
<path d="M20.7131 20.5388C20.5942 20.5388 20.4754 20.4936 20.3844 20.4026L17.4758 17.494C17.2945 17.3128 17.2945 17.0179 17.4758 16.8366L21.2337 13.078L20.2655 9.46354C20.2224 9.30283 20.2682 9.13217 20.3857 9.01463L24.7466 4.65373C24.8642 4.53619 25.0355 4.49037 25.1955 4.53354L28.3087 5.36826C28.4694 5.41143 28.5942 5.53627 28.6374 5.69697C28.6805 5.85768 28.6347 6.02834 28.5172 6.14588L25.1909 9.47217L25.8131 11.7971L28.1393 12.4199L31.4656 9.09365C31.5832 8.97611 31.7545 8.93029 31.9145 8.97346C32.0752 9.01662 32.2001 9.14147 32.2432 9.30217L33.078 12.4153C33.1211 12.576 33.0753 12.7467 32.9578 12.8642L28.5969 17.2251C28.4793 17.3426 28.308 17.3885 28.148 17.3453L24.321 16.32L22.3248 18.8076C22.1641 19.0081 21.8719 19.04 21.6714 18.8793C21.4708 18.7186 21.4389 18.4257 21.5996 18.2258L23.7857 15.5012C23.9013 15.3571 24.0905 15.2953 24.2685 15.3431L28.1294 16.3778L32.1104 12.3967L31.5539 10.3202L28.6075 13.2666C28.49 13.3842 28.3193 13.43 28.1586 13.3868L25.3144 12.6251C25.1537 12.582 25.0289 12.4565 24.9857 12.2964L24.2247 9.45291C24.1815 9.29221 24.2273 9.12154 24.3449 9.00401L27.2913 6.05756L25.2148 5.50108L21.2337 9.48213L22.2019 13.0966C22.2451 13.2573 22.1993 13.428 22.0817 13.5455L18.4626 17.1653L21.0425 19.7452C21.2238 19.9265 21.2238 20.2214 21.0425 20.4026C20.9515 20.493 20.832 20.5388 20.7131 20.5388Z" fill="#3C4D56"/>
<path d="M25.0632 32.2058C23.9323 32.2058 22.8665 31.6566 22.2117 30.7362L12.5716 17.6296C12.4195 17.4231 12.464 17.1316 12.6705 16.9795C12.877 16.8274 13.1685 16.8719 13.3206 17.0784L22.9635 30.1877C22.9648 30.1897 22.9668 30.1917 22.9681 30.1943C23.4562 30.8816 24.2199 31.2761 25.0639 31.2761C25.7479 31.2761 26.392 31.0091 26.8768 30.5244C27.3616 30.0396 27.6285 29.3948 27.6285 28.7088C27.6285 28.0228 27.3616 27.3787 26.8768 26.8933L14.0425 14.0603L12.0649 16.0378C11.8836 16.2191 11.5887 16.2191 11.4075 16.0378C11.2262 15.8566 11.2262 15.5617 11.4075 15.3804L13.7144 13.0735C13.8957 12.8922 14.1905 12.8922 14.3718 13.0735L27.5342 26.2359C28.195 26.8966 28.5582 27.7745 28.5582 28.7088C28.5582 29.6425 28.1943 30.521 27.5342 31.1818C26.8728 31.8425 25.9956 32.2058 25.0632 32.2058Z" fill="#3C4D56"/>
<path d="M11.0223 16.889C10.9035 16.889 10.7846 16.8439 10.6936 16.7529L9.12444 15.1844C9.03612 15.0961 8.98698 14.9759 8.98831 14.8504C8.98964 14.7255 9.04143 14.606 9.13174 14.5197L12.7157 11.0865C12.8983 10.9112 13.1872 10.9145 13.3658 11.0931L14.8593 12.5866C15.0406 12.7679 15.0406 13.0627 14.8593 13.244L11.351 16.7522C11.2607 16.8432 11.1412 16.889 11.0223 16.889ZM10.1179 14.863L11.0223 15.7668L13.8738 12.9153L13.0311 12.0726L10.1179 14.863Z" fill="#3C4D56"/>
<path d="M12.2554 9.49522C12.1366 9.49522 12.0177 9.45007 11.9267 9.35909L9.18479 6.61718C9.00351 6.43589 9.00351 6.14104 9.18479 5.95976L9.92058 5.22397L9.57792 3.64351C9.54472 3.48878 9.59187 3.32808 9.70343 3.21651L10.9891 1.93089C11.1703 1.7496 11.4652 1.7496 11.6465 1.93089L16.6123 6.89675C16.7936 7.07804 16.7936 7.37288 16.6123 7.55417L15.3267 8.8398C15.2151 8.95136 15.0538 8.99851 14.8997 8.9653L13.3192 8.62265L12.5835 9.35843C12.4932 9.4494 12.3743 9.49522 12.2554 9.49522ZM10.1709 6.28847L12.2554 8.37296L12.8418 7.78659C12.9534 7.67503 13.1141 7.62722 13.2688 7.66108L14.8492 8.00374L15.6269 7.22612L11.3178 2.91702L10.5401 3.69464L10.8828 5.27511C10.916 5.42983 10.8689 5.59054 10.7573 5.7021L10.1709 6.28847Z" fill="#3C4D56"/>
<path d="M2.119 16.2902C2.10174 16.2902 2.08514 16.2895 2.06787 16.2875C1.92775 16.2723 1.80225 16.1939 1.72654 16.0744C1.09037 15.071 0.808808 13.8644 0.932987 12.6764C1.05916 11.4704 1.6017 10.3336 2.46099 9.47493L5.03225 6.96676C5.21619 6.78746 5.51037 6.79145 5.68967 6.97473C5.86896 7.15868 5.86498 7.45285 5.6817 7.63215L3.11443 10.1363C1.82017 11.4313 1.48549 13.4208 2.23057 15.057L5.13717 12.1504C5.31846 11.9691 5.6133 11.9691 5.79459 12.1504L8.6381 14.9939L13.1949 10.6284L8.01189 5.44539L7.72635 5.71899C7.54107 5.89629 7.24689 5.89032 7.06892 5.70504C6.89162 5.51977 6.8976 5.22559 7.08287 5.04762L7.69713 4.45926C7.87974 4.28461 8.16861 4.28727 8.34724 4.4659L14.1883 10.307C14.2767 10.3953 14.3258 10.5155 14.3245 10.6404C14.3231 10.7652 14.2713 10.8847 14.181 10.9711L8.95287 15.9801C8.77025 16.1547 8.48139 16.1521 8.30275 15.9734L5.46521 13.1359L2.44771 16.1534C2.36006 16.2417 2.24185 16.2902 2.119 16.2902Z" fill="#3C4D56"/>
<path d="M6.35742 6.81403C6.32754 6.81403 6.29699 6.81071 6.26711 6.80473C6.23723 6.79875 6.20801 6.79012 6.18012 6.77817C6.15156 6.76688 6.125 6.75227 6.09977 6.73567C6.07453 6.7184 6.05063 6.69914 6.02871 6.67789C6.00746 6.65664 5.9882 6.63274 5.97094 6.6075C5.95434 6.58227 5.94039 6.55504 5.92844 6.52715C5.91715 6.4986 5.90785 6.46938 5.90187 6.44016C5.8959 6.41028 5.89258 6.37973 5.89258 6.34918C5.89258 6.227 5.94238 6.1068 6.02871 6.02047C6.05063 5.99922 6.07453 5.9793 6.09977 5.9627C6.125 5.9461 6.15156 5.93149 6.18012 5.9202C6.20801 5.90825 6.23723 5.89961 6.26711 5.89364C6.41785 5.86309 6.57855 5.91289 6.68613 6.02047C6.77313 6.1068 6.82227 6.227 6.82227 6.34918C6.82227 6.47137 6.77313 6.59157 6.68613 6.67789C6.5998 6.76422 6.48027 6.81403 6.35742 6.81403Z" fill="#3C4D56"/>
</svg>
