<svg width="34" height="34" viewBox="0 0 34 34" fill="none" xmlns="http://www.w3.org/2000/svg">
<path d="M31.5824 13.043C31.5293 12.7109 31.2238 12.4719 30.8918 12.4719H30.3207C29.8691 12.4719 29.4176 12.4719 28.966 12.4719C28.6738 11.2766 28.1957 10.1344 27.5449 9.07188C27.9965 8.60703 28.448 8.15547 28.9129 7.69063C29.152 7.45156 29.1918 7.07969 28.9926 6.81406C28.0496 5.49922 26.8941 4.35703 25.5793 3.41406C25.3137 3.22813 24.9418 3.25469 24.7027 3.49375C24.477 3.71953 24.2512 3.94531 24.0254 4.17109C23.7996 4.39687 23.5605 4.62266 23.3215 4.875C22.3918 4.31719 21.3957 3.87891 20.3598 3.58672C20.2004 3.37422 20.0543 3.20156 19.8949 2.98906V2.72344C19.8949 2.69688 19.8949 2.67031 19.8949 2.64375V2.25859C19.8949 2.01953 19.8949 1.78047 19.8949 1.50156C19.8949 1.16953 19.6559 0.890625 19.3238 0.8375C17.7301 0.598437 16.2027 0.598437 14.6223 0.8375C14.2902 0.890625 14.0379 1.19609 14.0512 1.54141C14.0512 1.78047 14.0512 2.01953 14.0512 2.27188V2.65703C14.0512 2.68359 14.0512 2.71016 14.0512 2.73672V3.00234C13.8918 3.21484 13.7457 3.3875 13.5863 3.6C12.8426 3.8125 12.1387 4.09141 11.448 4.43672C10.9301 4.35703 10.452 4.27734 9.93398 4.18437C9.7082 3.95859 9.48242 3.73281 9.25664 3.50703C9.01758 3.26797 8.65898 3.24141 8.38008 3.42734C7.06523 4.37031 5.90977 5.5125 4.9668 6.82734C4.76758 7.09297 4.80742 7.46484 5.04648 7.70391C5.51133 8.15547 5.96289 8.62031 6.41445 9.08516C5.77695 10.1477 5.29883 11.2898 4.99336 12.4852C4.5418 12.4719 4.09023 12.4719 3.63867 12.4852H3.04102C2.72227 12.4852 2.43008 12.7242 2.37695 13.043C2.24414 13.8531 2.17773 14.6633 2.17773 15.4734C2.17773 16.2969 2.24414 17.107 2.37695 17.8773C2.43008 18.1828 2.70898 18.4219 3.02773 18.4352C3.0543 18.4352 3.10742 18.4352 3.17383 18.4352C3.5457 18.4352 3.91758 18.4352 4.28945 18.4352H4.99336C5.29883 19.657 5.77695 20.7992 6.42773 21.875C6.13555 22.1539 5.85664 22.4461 5.57773 22.725L5.20586 23.0969C5.13945 23.1633 5.07305 23.2297 5.01992 23.2828C4.8207 23.5219 4.79414 23.8672 4.98008 24.1328C5.92305 25.4344 7.06523 26.5633 8.3668 27.493C8.48633 27.5727 8.63242 27.6125 8.76523 27.6125C8.93789 27.6125 9.11055 27.5461 9.24336 27.4133C9.24336 27.4133 9.29648 27.3734 9.29648 27.3602C9.56211 27.068 9.84101 26.8023 10.1199 26.5234C10.2793 26.3641 10.452 26.2047 10.6113 26.032C10.6645 26.0586 10.7176 26.0984 10.7707 26.125C11.2223 26.3906 11.7934 26.0586 11.7934 25.5406C11.7934 25.3016 11.6605 25.0758 11.448 24.9562C11.2488 24.8367 11.0629 24.7172 10.8637 24.5977C10.6379 24.4516 10.3457 24.4648 10.1199 24.6242C10.0535 24.6773 9.98711 24.7305 9.90742 24.8102C9.65508 25.0758 9.41602 25.3148 9.15039 25.5672C8.99102 25.7133 8.83164 25.8727 8.67227 26.032C7.82227 25.3813 7.06523 24.6242 6.40117 23.7875L6.5207 23.668C6.89258 23.2961 7.26445 22.9242 7.64961 22.5523C7.7293 22.4727 7.78242 22.4062 7.83555 22.3398C7.99492 22.0875 7.95508 21.7688 7.7957 21.5297C7.01211 20.3344 6.46758 19.0195 6.18867 17.625C6.12227 17.3062 5.84336 17.0805 5.52461 17.0805H5.44492C5.05977 17.0805 4.67461 17.0805 4.27617 17.0805H3.61211C3.55898 16.5625 3.51914 16.018 3.51914 15.4734C3.51914 14.9422 3.5457 14.3977 3.61211 13.8398H3.62539C4.1832 13.8398 4.72773 13.8398 5.2457 13.8531C5.3918 13.8664 5.53789 13.8531 5.68398 13.8133C5.93633 13.7602 6.13555 13.5477 6.18867 13.2953C6.46758 11.9008 7.01211 10.5859 7.80898 9.39062C7.95508 9.16484 7.95508 8.87266 7.80898 8.66016C7.7293 8.52734 7.62305 8.42109 7.47695 8.26172C7.11836 7.90312 6.74648 7.53125 6.38789 7.17266C7.05195 6.32266 7.82227 5.55234 8.68555 4.88828C9.0707 5.27344 9.46914 5.65859 9.8543 6.07031C9.96055 6.17656 10.0934 6.29609 10.2926 6.37578C10.5051 6.45547 10.7309 6.41563 10.9168 6.29609C12.1121 5.5125 13.427 4.98125 14.8082 4.71562C15.0738 4.6625 15.273 4.46328 15.3395 4.19766C15.366 4.10469 15.366 3.99844 15.366 3.86562C15.3527 3.58672 15.3527 3.30781 15.366 3.04219V2.69687C15.366 2.67031 15.366 2.64375 15.366 2.61719V2.325C15.366 2.27188 15.366 2.20547 15.366 2.15234C16.4285 2.03281 17.4379 2.03281 18.5004 2.15234C18.5004 2.20547 18.5004 2.27188 18.5004 2.325V2.61719C18.5004 2.64375 18.5004 2.67031 18.5004 2.69687V3.04219C18.5004 3.30781 18.5004 3.58672 18.5004 3.89219C18.5004 3.99844 18.5137 4.10469 18.527 4.19766C18.5801 4.46328 18.7926 4.6625 19.0582 4.71562C20.4527 4.98125 21.7543 5.5125 22.9496 6.29609C23.1355 6.41563 23.3746 6.45547 23.5871 6.37578C23.773 6.29609 23.9191 6.17656 24.0254 6.07031C24.4105 5.67188 24.809 5.28672 25.1809 4.90156C26.0441 5.56563 26.8145 6.33594 27.4785 7.18594C27.1199 7.54453 26.748 7.91641 26.4027 8.275C26.2434 8.42109 26.1371 8.54063 26.0574 8.67344C25.9113 8.89922 25.9113 9.19141 26.0574 9.40391C26.8543 10.5992 27.3988 11.9141 27.6777 13.3086C27.7309 13.5609 27.9301 13.7734 28.1824 13.8266C28.3285 13.8664 28.4746 13.8797 28.6074 13.8664C29.152 13.8531 29.6965 13.8531 30.241 13.8531H30.2676C30.3207 14.3844 30.3605 14.9289 30.3605 15.4867C30.3605 16.0312 30.334 16.5758 30.2676 17.0938H29.6035C29.2184 17.0938 28.8332 17.0938 28.4348 17.0938H28.4215C28.1027 17.0938 27.8238 17.3195 27.7574 17.6383C27.4785 19.0594 26.9207 20.3742 26.1238 21.5828C25.991 21.7953 25.9777 22.1273 26.1105 22.3398C26.1504 22.4062 26.2035 22.4859 26.2965 22.5656C26.5621 22.818 26.9871 23.2164 27.2395 23.482L27.5449 23.8008C26.8809 24.6375 26.1105 25.3945 25.2738 26.0586C25.1012 25.8859 24.9285 25.7133 24.7426 25.5273L24.0254 24.8102C23.959 24.7305 23.8926 24.6773 23.8262 24.6375C23.6004 24.4648 23.2816 24.4648 23.0559 24.6242C22.8832 24.7437 22.6973 24.8633 22.498 24.9695C22.2855 25.0891 22.1527 25.3016 22.1527 25.5406V25.5805C22.1527 26.0852 22.6973 26.4039 23.1355 26.1516C23.202 26.1117 23.2684 26.0719 23.3348 26.032C23.4809 26.1781 23.627 26.3242 23.773 26.4836C24.0652 26.7758 24.3574 27.068 24.6629 27.3867C24.716 27.4398 24.7559 27.4797 24.809 27.5063C25.048 27.6656 25.3535 27.6523 25.5793 27.493C26.8809 26.5633 28.0098 25.4344 28.966 24.1328C29.152 23.8672 29.1387 23.5219 28.9262 23.2828C28.873 23.2297 28.8066 23.1633 28.7402 23.0969L28.3684 22.725C28.0895 22.4461 27.8105 22.1672 27.5184 21.875C28.1691 20.7992 28.6473 19.6438 28.9527 18.4352C29.1918 18.4352 29.4176 18.4352 29.6566 18.4352H30.7723C30.8387 18.4352 30.8918 18.4352 30.9051 18.4352C31.2371 18.4352 31.516 18.1961 31.5691 17.8773C31.702 17.107 31.7684 16.2969 31.7684 15.4734C31.7816 14.6367 31.7152 13.8266 31.5824 13.043Z" fill="#3C4D56"/>
<path d="M22.9359 14.69C22.9359 12.7377 21.9797 10.9314 20.3992 9.82907C20.2797 9.74938 20.1734 9.66969 20.0539 9.60329C19.8414 9.48376 19.5891 9.47048 19.3766 9.59001C19.1641 9.70954 19.0312 9.93532 19.0312 10.1744V14.0791C19.0312 14.3978 18.7656 14.6634 18.4469 14.6634H15.5516C15.2328 14.6634 14.9672 14.3978 14.9672 14.0791V10.1744C14.9672 9.93532 14.8344 9.70954 14.6219 9.59001C14.4094 9.47048 14.1437 9.47048 13.9312 9.60329C13.8117 9.68298 13.6922 9.76266 13.5594 9.84235C11.9922 10.958 11.0625 12.7642 11.0625 14.6767C11.0625 14.7564 11.0625 14.8361 11.0625 14.8627C11.1156 16.722 12.0586 18.4752 13.5992 19.5377C13.732 19.6306 13.8648 19.7236 13.9977 19.8033V30.2158C13.9711 31.8095 15.193 33.1642 16.8 33.297C16.8531 33.297 16.9195 33.297 16.9727 33.297C16.9859 33.297 16.9859 33.297 16.9859 33.297C17.7828 33.297 18.5398 32.9916 19.0977 32.4338C19.6687 31.8759 19.9875 31.1189 19.9875 30.3088V19.79C20.107 19.7236 20.2266 19.6439 20.3461 19.5642C21.9266 18.4752 22.8961 16.6955 22.9227 14.8228C22.9359 14.783 22.9359 14.7431 22.9359 14.69ZM21.5812 14.7697C21.5547 16.2439 20.8109 17.6252 19.5891 18.4619C19.4031 18.5947 19.2172 18.7009 19.018 18.7939C18.7922 18.9134 18.6461 19.1392 18.6461 19.4049V30.322C18.6461 30.7603 18.4734 31.172 18.1547 31.4908C17.8492 31.7963 17.4242 31.9689 16.9859 31.9689C16.9859 31.9689 16.9859 31.9689 16.9727 31.9689C16.9328 31.9689 16.9062 31.9689 16.893 31.9689C16.0031 31.8892 15.3258 31.1322 15.3391 30.2424V19.4049C15.3391 19.1259 15.1797 18.9002 14.9406 18.7939C14.7414 18.7009 14.5555 18.5814 14.3562 18.4486C13.1609 17.6119 12.4437 16.297 12.4039 14.7963C12.4039 14.7564 12.4039 14.7299 12.4039 14.69C12.4039 13.5345 12.8422 12.4322 13.6125 11.6088V14.0791C13.6125 15.1416 14.4758 16.0181 15.5516 16.0181H18.4469C19.5094 16.0181 20.3859 15.1549 20.3859 14.0791V11.5955C21.1562 12.4322 21.5945 13.5345 21.5945 14.69L21.5812 14.7697Z" fill="#3C4D56"/>
</svg>
