<svg width="34" height="34" viewBox="0 0 34 34" fill="none" xmlns="http://www.w3.org/2000/svg">
<g clip-path="url(#clip0_4661_139)">
<path d="M17 0.53125C7.91881 0.53125 0.53125 7.91934 0.53125 17C0.53125 26.0807 7.91881 33.4688 17 33.4688C26.0812 33.4688 33.4688 26.0807 33.4688 17C33.4688 7.91934 26.0812 0.53125 17 0.53125ZM26.4738 29.1359L25.8607 28.2922L25.0017 28.917L25.6179 29.7649C24.5825 30.4661 23.4573 31.0447 22.2636 31.4797L21.938 30.4778L20.9275 30.8061L21.2521 31.8049C20.0637 32.1465 18.8179 32.3489 17.5318 32.393V31.3438H16.4693V32.393C15.1831 32.3489 13.9368 32.147 12.7489 31.8049L13.0735 30.8061L12.0631 30.4778L11.7374 31.4797C10.5437 31.0447 9.41906 30.4661 8.38312 29.7649L8.99938 28.917L8.14034 28.2922L7.52728 29.1359C6.53544 28.3597 5.64134 27.4656 4.86519 26.4738L5.70881 25.8607L5.08406 25.0012L4.23619 25.6174C3.53494 24.582 2.95641 23.4568 2.52131 22.2636L3.52325 21.938L3.19441 20.9275L2.19566 21.2521C1.85353 20.0632 1.65113 18.8174 1.60703 17.5312H2.65625V16.4688H1.60703C1.65113 15.1826 1.853 13.9368 2.19512 12.7484L3.19388 13.073L3.52272 12.0626L2.52078 11.7369C2.95587 10.5437 3.53441 9.41853 4.23566 8.38312L5.08353 8.99938L5.70828 8.13981L4.86466 7.52675C5.64081 6.53491 6.53491 5.64081 7.52675 4.86466L8.13981 5.70828L8.99884 5.08353L8.38259 4.23566C9.418 3.53441 10.5432 2.95587 11.7369 2.52078L12.0626 3.52272L13.073 3.19441L12.7484 2.19566C13.9363 1.85353 15.1826 1.65113 16.4688 1.60703V2.65625H17.5312V1.60703C18.8174 1.65113 20.0637 1.853 21.2516 2.19512L20.927 3.19388L21.9374 3.52219L22.2631 2.52025C23.4568 2.95534 24.5815 3.53387 25.6174 4.23513L25.0012 5.083L25.8602 5.70775L26.4733 4.86413C27.4651 5.64028 28.3592 6.53437 29.1353 7.52622L28.2917 8.13928L28.9165 8.99884L29.7643 8.38259C30.4656 9.418 31.0441 10.5432 31.4792 11.7364L30.4773 12.062L30.8061 13.0725L31.8049 12.7479C32.1465 13.9363 32.3489 15.1821 32.393 16.4682H31.3438V17.5307H32.393C32.3489 18.8169 32.147 20.0627 31.8049 21.2511L30.8061 20.9265L30.4773 21.9369L31.4792 22.2626C31.0441 23.4557 30.4656 24.5809 29.7643 25.6163L28.9165 25.0001L28.2917 25.8597L29.1353 26.4727C28.3597 27.4656 27.4656 28.3597 26.4738 29.1359Z" fill="#3C4D56"/>
<path d="M19.125 17C19.125 15.8281 18.1719 14.875 17 14.875C15.8281 14.875 14.875 15.8281 14.875 17C14.875 18.1719 15.8281 19.125 17 19.125C18.1719 19.125 19.125 18.1719 19.125 17ZM15.9375 17C15.9375 16.414 16.414 15.9375 17 15.9375C17.586 15.9375 18.0625 16.414 18.0625 17C18.0625 17.586 17.586 18.0625 17 18.0625C16.414 18.0625 15.9375 17.586 15.9375 17Z" fill="#3C4D56"/>
<path d="M14.3711 20.1602C14.6645 20.1602 14.9023 19.9223 14.9023 19.6289C14.9023 19.3355 14.6645 19.0977 14.3711 19.0977C14.0777 19.0977 13.8398 19.3355 13.8398 19.6289C13.8398 19.9223 14.0777 20.1602 14.3711 20.1602Z" fill="#3C4D56"/>
<path d="M19.6289 20.1602C19.9223 20.1602 20.1602 19.9223 20.1602 19.6289C20.1602 19.3355 19.9223 19.0977 19.6289 19.0977C19.3355 19.0977 19.0977 19.3355 19.0977 19.6289C19.0977 19.9223 19.3355 20.1602 19.6289 20.1602Z" fill="#3C4D56"/>
<path d="M19.6289 14.9023C19.9223 14.9023 20.1602 14.6645 20.1602 14.3711C20.1602 14.0777 19.9223 13.8398 19.6289 13.8398C19.3355 13.8398 19.0977 14.0777 19.0977 14.3711C19.0977 14.6645 19.3355 14.9023 19.6289 14.9023Z" fill="#3C4D56"/>
<path d="M14.3711 14.9023C14.6645 14.9023 14.9023 14.6645 14.9023 14.3711C14.9023 14.0777 14.6645 13.8398 14.3711 13.8398C14.0777 13.8398 13.8398 14.0777 13.8398 14.3711C13.8398 14.6645 14.0777 14.9023 14.3711 14.9023Z" fill="#3C4D56"/>
<path d="M17 3.71875C9.67672 3.71875 3.71875 9.67672 3.71875 17C3.71875 24.3233 9.67672 30.2812 17 30.2812C24.3233 30.2812 30.2812 24.3233 30.2812 17C30.2812 9.67672 24.3233 3.71875 17 3.71875ZM29.2188 17C29.2188 17.9802 29.0997 18.9322 28.8809 19.8459L23.2528 18.2362C23.3314 17.8357 23.375 17.4229 23.375 17C23.375 16.5771 23.3314 16.1643 23.2523 15.7638L28.8803 14.1541C29.0997 15.0678 29.2188 16.0198 29.2188 17ZM4.78125 17C4.78125 16.0198 4.90025 15.0678 5.11912 14.1541L10.7472 15.7638C10.6686 16.1643 10.625 16.5771 10.625 17C10.625 17.4229 10.6686 17.8357 10.7477 18.2362L5.11966 19.8459C4.90025 18.9322 4.78125 17.9802 4.78125 17ZM12.8084 12.2087L8.59987 8.13928C9.97794 6.83241 11.6578 5.84269 13.5246 5.28806L14.9457 10.9714C14.1509 11.2428 13.4279 11.6663 12.8084 12.2087ZM12.0663 12.9689C11.6344 13.4964 11.2912 14.0962 11.0447 14.7438L5.41237 13.1325C5.94044 11.5552 6.78034 10.1203 7.86091 8.90216L12.0663 12.9689ZM11.0452 19.2562C11.2917 19.9038 11.6349 20.5041 12.0668 21.0311L7.86144 25.0978C6.78088 23.8797 5.94044 22.4448 5.41291 20.8675L11.0452 19.2562ZM12.8084 21.7913C13.4273 22.3337 14.1504 22.7572 14.9451 23.0286L13.524 28.7119C11.6572 28.1568 9.97741 27.1676 8.59934 25.8607L12.8084 21.7913ZM11.6875 17C11.6875 14.0707 14.0707 11.6875 17 11.6875C19.9293 11.6875 22.3125 14.0707 22.3125 17C22.3125 19.9293 19.9293 22.3125 17 22.3125C14.0707 22.3125 11.6875 19.9293 11.6875 17ZM21.9337 12.9689L26.1391 8.90216C27.2197 10.1203 28.0601 11.5552 28.5876 13.1325L22.9548 14.7438C22.7088 14.0962 22.3651 13.4964 21.9337 12.9689ZM21.1916 12.2087C20.5727 11.6663 19.8496 11.2428 19.0549 10.9714L20.476 5.28806C22.3428 5.84322 24.0226 6.83241 25.4007 8.13928L21.1916 12.2087ZM21.1916 21.7913L25.4001 25.8607C24.0221 27.1676 22.3423 28.1573 20.4754 28.7119L19.0543 23.0286C19.8491 22.7572 20.5721 22.3337 21.1916 21.7913ZM21.9337 21.0311C22.3656 20.5036 22.7088 19.9038 22.9553 19.2562L28.5882 20.8675C28.0601 22.4448 27.2202 23.8797 26.1396 25.0978L21.9337 21.0311ZM19.4459 5.02775L18.0237 10.7153C17.6896 10.6606 17.349 10.625 17 10.625C16.651 10.625 16.3104 10.6606 15.9763 10.7148L14.5541 5.02775C15.3446 4.86625 16.1628 4.78125 17 4.78125C17.8372 4.78125 18.6554 4.86625 19.4459 5.02775ZM14.5541 28.9722L15.9763 23.2847C16.3104 23.3394 16.651 23.375 17 23.375C17.349 23.375 17.6896 23.3394 18.0237 23.2852L19.4459 28.9728C18.6554 29.1337 17.8372 29.2188 17 29.2188C16.1628 29.2188 15.3446 29.1337 14.5541 28.9722Z" fill="#3C4D56"/>
</g>
<defs>
<clipPath id="clip0_4661_139">
<rect width="34" height="34" fill="white"/>
</clipPath>
</defs>
</svg>
