<svg width="34" height="34" viewBox="0 0 34 34" fill="none" xmlns="http://www.w3.org/2000/svg">
<g clip-path="url(#clip0_4661_130)">
<path d="M33.5973 6.92219L31.518 6.40209C31.4386 6.17145 31.3458 5.94564 31.2402 5.72581L32.3414 3.88981C32.4023 3.78827 32.4276 3.6693 32.4131 3.55178C32.3987 3.43426 32.3454 3.32493 32.2618 3.24116L30.7594 1.73825C30.6756 1.65458 30.5663 1.6013 30.4487 1.58686C30.3312 1.57243 30.2123 1.59766 30.1107 1.65856L28.2742 2.7625C28.0541 2.65707 27.8281 2.5643 27.5974 2.48466L27.0778 0.402156C27.049 0.287275 26.9827 0.185305 26.8893 0.112442C26.796 0.0395793 26.6809 3.11336e-06 26.5625 0L24.4375 0C24.3191 3.11336e-06 24.204 0.0395793 24.1107 0.112442C24.0173 0.185305 23.951 0.287275 23.9222 0.402156L23.4026 2.482C23.1719 2.56164 22.9459 2.65441 22.7258 2.75984L20.8898 1.65856C20.7883 1.59766 20.6693 1.57243 20.5518 1.58686C20.4343 1.6013 20.3249 1.65458 20.2412 1.73825L18.7382 3.24062C18.6546 3.3244 18.6013 3.43373 18.5869 3.55125C18.5724 3.66877 18.5977 3.78774 18.6586 3.88928L19.7625 5.72581C19.6568 5.94564 19.564 6.17145 19.4847 6.40209L17.4053 6.92219C17.2899 6.95036 17.1872 7.01644 17.1137 7.10986C17.0402 7.20328 17.0002 7.31864 17 7.4375V9.5625C17 9.7034 17.056 9.83852 17.1556 9.93815C17.2552 10.0378 17.3904 10.0938 17.5312 10.0938C17.6721 10.0938 17.8073 10.0378 17.9069 9.93815C18.0065 9.83852 18.0625 9.7034 18.0625 9.5625V7.85241L20.0281 7.36153C20.118 7.33909 20.2004 7.29355 20.2672 7.22944C20.334 7.16533 20.3829 7.08487 20.409 6.99603C20.5137 6.63651 20.6562 6.28909 20.834 5.95956C20.8783 5.87828 20.9005 5.78684 20.8986 5.69431C20.8966 5.60179 20.8705 5.51137 20.8229 5.43203L19.7827 3.69856L20.6991 2.78269L22.432 3.825C22.5114 3.87257 22.6019 3.89857 22.6944 3.90043C22.7869 3.9023 22.8783 3.87996 22.9596 3.83562C23.2893 3.65779 23.6369 3.51533 23.9966 3.41063C24.0851 3.38438 24.1653 3.3355 24.2292 3.26879C24.2932 3.20208 24.3386 3.11987 24.361 3.03025L24.8524 1.0625H26.1476L26.639 3.02812C26.6614 3.11774 26.7068 3.19996 26.7708 3.26666C26.8347 3.33337 26.9149 3.38226 27.0034 3.4085C27.3631 3.51321 27.7107 3.65567 28.0404 3.8335C28.1217 3.87783 28.2131 3.90017 28.3056 3.89831C28.3981 3.89645 28.4886 3.87044 28.568 3.82288L30.3009 2.78269L31.2173 3.69856L30.1777 5.43203C30.13 5.51137 30.1039 5.60179 30.102 5.69431C30.1 5.78684 30.1222 5.87828 30.1665 5.95956C30.3443 6.28909 30.4868 6.63651 30.5915 6.99603C30.6176 7.08487 30.6665 7.16533 30.7333 7.22944C30.8002 7.29355 30.8826 7.33909 30.9724 7.36153L32.938 7.85241V9.14759L30.9724 9.63847C30.8826 9.66091 30.8002 9.70645 30.7333 9.77056C30.6665 9.83467 30.6176 9.91513 30.5915 10.004C30.4868 10.3635 30.3443 10.7109 30.1665 11.0404C30.1222 11.1217 30.1 11.2132 30.102 11.3057C30.1039 11.3982 30.13 11.4886 30.1777 11.568L31.2173 13.3014L30.3009 14.2173L28.568 13.175C28.4886 13.1274 28.3981 13.1014 28.3056 13.0996C28.2131 13.0977 28.1217 13.12 28.0404 13.1644C27.7107 13.3422 27.3631 13.4847 27.0034 13.5894C26.9149 13.6156 26.8347 13.6645 26.7708 13.7312C26.7068 13.7979 26.6614 13.8801 26.639 13.9697L26.1476 15.9375H24.4375C24.2966 15.9375 24.1615 15.9935 24.0618 16.0931C23.9622 16.1927 23.9062 16.3279 23.9062 16.4688C23.9062 16.6096 23.9622 16.7448 24.0618 16.8444C24.1615 16.944 24.2966 17 24.4375 17H26.5625C26.6809 17 26.796 16.9604 26.8893 16.8876C26.9827 16.8147 27.049 16.7127 27.0778 16.5978L27.5974 14.518C27.8281 14.4384 28.0541 14.3456 28.2742 14.2402L30.1102 15.3414C30.2117 15.4023 30.3307 15.4276 30.4482 15.4131C30.5657 15.3987 30.6751 15.3454 30.7588 15.2618L32.2618 13.7594C32.3454 13.6756 32.3987 13.5663 32.4131 13.4488C32.4276 13.3312 32.4023 13.2123 32.3414 13.1107L31.2402 11.2747C31.3458 11.0549 31.4386 10.8291 31.518 10.5984L33.5973 10.0783C33.7124 10.0496 33.8145 9.98327 33.8875 9.88979C33.9605 9.7963 34.0001 9.68109 34 9.5625V7.4375C34 7.319 33.9603 7.20391 33.8873 7.11054C33.8144 7.01716 33.7123 6.95086 33.5973 6.92219Z" fill="white"/>
<path d="M25.5 12.75C26.3406 12.75 27.1623 12.5007 27.8612 12.0337C28.5601 11.5668 29.1048 10.903 29.4265 10.1264C29.7482 9.34982 29.8323 8.49529 29.6683 7.67087C29.5044 6.84645 29.0996 6.08917 28.5052 5.4948C27.9108 4.90042 27.1536 4.49565 26.3291 4.33166C25.5047 4.16768 24.6502 4.25184 23.8736 4.57351C23.097 4.89519 22.4333 5.43992 21.9663 6.13883C21.4993 6.83774 21.25 7.65943 21.25 8.5C21.25 8.6409 21.306 8.77602 21.4056 8.87565C21.5052 8.97528 21.6404 9.03125 21.7812 9.03125C21.9221 9.03125 22.0573 8.97528 22.1569 8.87565C22.2565 8.77602 22.3125 8.6409 22.3125 8.5C22.3125 7.86957 22.4994 7.2533 22.8497 6.72912C23.1999 6.20494 23.6978 5.79639 24.2802 5.55514C24.8626 5.31388 25.5035 5.25076 26.1219 5.37375C26.7402 5.49674 27.3081 5.80032 27.7539 6.2461C28.1997 6.69188 28.5033 7.25984 28.6263 7.87815C28.7492 8.49647 28.6861 9.13737 28.4449 9.71981C28.2036 10.3022 27.7951 10.8001 27.2709 11.1503C26.7467 11.5006 26.1304 11.6875 25.5 11.6875C25.3591 11.6875 25.224 11.7435 25.1243 11.8431C25.0247 11.9427 24.9688 12.0779 24.9688 12.2188C24.9688 12.3596 25.0247 12.4948 25.1243 12.5944C25.224 12.694 25.3591 12.75 25.5 12.75Z" fill="white"/>
<path d="M27.625 8.5C27.625 8.07972 27.5004 7.66887 27.2669 7.31941C27.0334 6.96996 26.7015 6.69759 26.3132 6.53676C25.9249 6.37592 25.4976 6.33384 25.0854 6.41583C24.6732 6.49783 24.2946 6.70021 23.9974 6.9974C23.7002 7.29459 23.4978 7.67322 23.4158 8.08543C23.3338 8.49764 23.3759 8.92491 23.5368 9.3132C23.6976 9.7015 23.97 10.0334 24.3194 10.2669C24.6689 10.5004 25.0797 10.625 25.5 10.625C26.0636 10.625 26.6041 10.4011 27.0026 10.0026C27.4011 9.60409 27.625 9.06359 27.625 8.5ZM24.4375 8.5C24.4375 8.28986 24.4998 8.08444 24.6166 7.90971C24.7333 7.73498 24.8993 7.5988 25.0934 7.51838C25.2875 7.43796 25.5012 7.41692 25.7073 7.45792C25.9134 7.49891 26.1027 7.60011 26.2513 7.7487C26.3999 7.89729 26.5011 8.08661 26.5421 8.29272C26.5831 8.49882 26.562 8.71246 26.4816 8.9066C26.4012 9.10075 26.265 9.26669 26.0903 9.38344C25.9156 9.50019 25.7101 9.5625 25.5 9.5625C25.2182 9.5625 24.948 9.45056 24.7487 9.2513C24.5494 9.05204 24.4375 8.78179 24.4375 8.5Z" fill="white"/>
<path d="M26.0753 17.5313L22.7593 17.255C22.6621 16.992 22.5521 16.728 22.4294 16.4656L24.5809 13.923C24.667 13.8212 24.7116 13.6908 24.706 13.5577C24.7004 13.4246 24.6449 13.2984 24.5507 13.2042L20.7947 9.44775C20.7005 9.35355 20.5743 9.29821 20.4411 9.2927C20.308 9.28719 20.1777 9.33191 20.0759 9.418L17.5313 11.5712C17.2692 11.4486 17.006 11.3385 16.7418 11.2407L16.4688 7.92466C16.4577 7.79154 16.3968 7.66748 16.2984 7.5772C16.1999 7.48692 16.0711 7.43704 15.9375 7.4375H10.625C10.4914 7.43704 10.3626 7.48692 10.2641 7.5772C10.1657 7.66748 10.1048 7.79154 10.0938 7.92466L9.81697 11.2407C9.55312 11.3378 9.28997 11.4479 9.02753 11.5712L6.48444 9.4196C6.38273 9.33351 6.25239 9.28878 6.11925 9.29429C5.98611 9.2998 5.85991 9.35515 5.76566 9.44935L2.00972 13.2058C1.91545 13.3 1.86001 13.4262 1.8544 13.5593C1.84879 13.6924 1.89342 13.8228 1.97944 13.9246L4.13313 16.4688C4.01041 16.7312 3.90044 16.9952 3.80322 17.2582L0.487159 17.5313C0.35404 17.5423 0.229983 17.6032 0.139702 17.7016C0.0494207 17.8001 -0.00045768 17.9289 3.16517e-06 18.0625V23.375C-0.00045768 23.5086 0.0494207 23.6374 0.139702 23.7359C0.229983 23.8343 0.35404 23.8952 0.487159 23.9063L3.80322 24.1825C3.90044 24.4455 4.01041 24.7095 4.13313 24.9719L1.98157 27.5129C1.89555 27.6147 1.85091 27.7451 1.85652 27.8782C1.86213 28.0113 1.91757 28.1375 2.01185 28.2317L5.76778 31.9882C5.86203 32.0824 5.98824 32.1377 6.12137 32.1432C6.25451 32.1487 6.38486 32.104 6.48657 32.0179L9.03125 29.8663C9.29298 29.9889 9.55613 30.099 9.82069 30.1968L10.0938 33.5128C10.1048 33.646 10.1657 33.77 10.2641 33.8603C10.3626 33.9506 10.4914 34.0005 10.625 34H15.9375C16.0711 34.0005 16.1999 33.9506 16.2984 33.8603C16.3968 33.77 16.4577 33.646 16.4688 33.5128L16.7455 30.1968C17.0097 30.0997 17.2729 29.9896 17.535 29.8663L20.0781 32.0179C20.1798 32.104 20.3101 32.1487 20.4433 32.1432C20.5764 32.1377 20.7026 32.0824 20.7968 31.9882L24.5528 28.2317C24.6471 28.1375 24.7025 28.0113 24.7081 27.8782C24.7137 27.7451 24.6691 27.6147 24.5831 27.5129L22.4294 24.9688C22.5521 24.7063 22.6621 24.4423 22.7593 24.1793L26.0753 23.9063C26.2085 23.8952 26.3325 23.8343 26.4228 23.7359C26.5131 23.6374 26.563 23.5086 26.5625 23.375V18.0625C26.563 17.9289 26.5131 17.8001 26.4228 17.7016C26.3325 17.6032 26.2085 17.5423 26.0753 17.5313ZM25.5 22.8863L22.3263 23.1519C22.2221 23.1605 22.1227 23.1998 22.0406 23.2647C21.9586 23.3297 21.8976 23.4174 21.8652 23.5168C21.7196 23.9611 21.5395 24.3932 21.3265 24.8094C21.2789 24.9026 21.26 25.0078 21.272 25.1118C21.284 25.2157 21.3264 25.3138 21.394 25.3938L23.4536 27.8279L20.3888 30.8933L17.9563 28.8315C17.8763 28.7639 17.7782 28.7215 17.6743 28.7095C17.5703 28.6975 17.4651 28.7164 17.3719 28.764C16.956 28.9768 16.5242 29.1571 16.0804 29.3032C15.9809 29.3356 15.8932 29.3966 15.8283 29.4787C15.7634 29.5607 15.7241 29.6601 15.7154 29.7643L15.4488 32.9375H11.1138L10.8481 29.7643C10.8395 29.6601 10.8002 29.5607 10.7353 29.4787C10.6703 29.3966 10.5826 29.3356 10.4832 29.3032C10.039 29.1572 9.60688 28.9769 9.19063 28.764C9.09741 28.7164 8.99221 28.6975 8.88825 28.7095C8.78429 28.7215 8.68618 28.7639 8.60625 28.8315L6.17153 30.8911L3.10675 27.8258L5.16853 25.3938C5.23609 25.3138 5.27853 25.2157 5.29054 25.1118C5.30254 25.0078 5.28357 24.9026 5.236 24.8094C5.02309 24.3936 4.84298 23.9618 4.69732 23.5179C4.66493 23.4184 4.60389 23.3307 4.52186 23.2658C4.43983 23.2009 4.34045 23.1616 4.23619 23.1529L1.0625 22.8863V18.5513L4.23619 18.2856C4.34045 18.277 4.43983 18.2377 4.52186 18.1728C4.60389 18.1078 4.66493 18.0201 4.69732 17.9207C4.84293 17.4764 5.02304 17.0443 5.236 16.6281C5.28357 16.5349 5.30254 16.4297 5.29054 16.3257C5.27853 16.2218 5.23609 16.1237 5.16853 16.0438L3.10888 13.6117L6.17366 10.5464L8.60625 12.606C8.68618 12.6736 8.78429 12.716 8.88825 12.728C8.99221 12.74 9.09741 12.7211 9.19063 12.6735C9.60654 12.4607 10.0383 12.2804 10.4821 12.1343C10.5816 12.1019 10.6693 12.0409 10.7342 11.9588C10.7991 11.8768 10.8384 11.7774 10.8471 11.6732L11.1138 8.5H15.4488L15.7144 11.6732C15.723 11.7774 15.7623 11.8768 15.8272 11.9588C15.8922 12.0409 15.9799 12.1019 16.0793 12.1343C16.5235 12.2803 16.9556 12.4606 17.3719 12.6735C17.465 12.7216 17.5703 12.7409 17.6744 12.7289C17.7784 12.7169 17.8766 12.6741 17.9563 12.606L20.391 10.5464L23.4558 13.6117L21.394 16.0438C21.3264 16.1237 21.284 16.2218 21.272 16.3257C21.26 16.4297 21.2789 16.5349 21.3265 16.6281C21.5394 17.0439 21.7195 17.4757 21.8652 17.9196C21.8976 18.0191 21.9586 18.1068 22.0406 18.1717C22.1227 18.2366 22.2221 18.2759 22.3263 18.2846L25.5 18.5502V22.8863Z" fill="white"/>
<path d="M13.2813 12.75C11.7052 12.75 10.1645 13.2174 8.85405 14.093C7.5436 14.9686 6.52222 16.2131 5.91909 17.6692C5.31595 19.1253 5.15814 20.7276 5.46562 22.2734C5.7731 23.8192 6.53205 25.2391 7.6465 26.3535C8.76095 27.468 10.1808 28.2269 11.7266 28.5344C13.2724 28.8419 14.8747 28.6841 16.3308 28.0809C17.7869 27.4778 19.0314 26.4564 19.907 25.146C20.7826 23.8355 21.25 22.2948 21.25 20.7188C21.2476 18.606 20.4073 16.5805 18.9134 15.0866C17.4195 13.5927 15.394 12.7524 13.2813 12.75ZM13.2813 27.625C11.9153 27.625 10.5801 27.22 9.44435 26.4611C8.30862 25.7022 7.42343 24.6236 6.90071 23.3617C6.37799 22.0997 6.24123 20.7111 6.50771 19.3714C6.77418 18.0317 7.43194 16.8012 8.3978 15.8353C9.36365 14.8694 10.5942 14.2117 11.9339 13.9452C13.2736 13.6787 14.6622 13.8155 15.9242 14.3382C17.1861 14.8609 18.2647 15.7461 19.0236 16.8818C19.7825 18.0176 20.1875 19.3528 20.1875 20.7188C20.1854 22.5498 19.4571 24.3052 18.1624 25.5999C16.8677 26.8946 15.1123 27.6229 13.2813 27.625Z" fill="white"/>
<path d="M13.2813 15.9375C12.3356 15.9375 11.4112 16.2179 10.6249 16.7433C9.83866 17.2687 9.22583 18.0154 8.86395 18.889C8.50207 19.7627 8.40739 20.7241 8.59187 21.6515C8.77636 22.579 9.23173 23.4309 9.9004 24.0996C10.5691 24.7683 11.421 25.2236 12.3485 25.4081C13.2759 25.5926 14.2373 25.4979 15.111 25.136C15.9846 24.7742 16.7313 24.1613 17.2567 23.3751C17.7821 22.5888 18.0625 21.6644 18.0625 20.7188C18.0611 19.4511 17.5569 18.2358 16.6606 17.3394C15.7642 16.4431 14.5489 15.9389 13.2813 15.9375ZM13.2813 24.4375C12.5458 24.4375 11.8268 24.2194 11.2152 23.8108C10.6037 23.4022 10.127 22.8214 9.84558 22.1419C9.56411 21.4623 9.49047 20.7146 9.63396 19.9933C9.77745 19.2719 10.1316 18.6093 10.6517 18.0892C11.1718 17.5691 11.8344 17.2149 12.5558 17.0715C13.2771 16.928 14.0248 17.0016 14.7044 17.2831C15.3839 17.5645 15.9647 18.0412 16.3733 18.6527C16.7819 19.2643 17 19.9833 17 20.7188C16.9989 21.7047 16.6067 22.6499 15.9096 23.3471C15.2124 24.0442 14.2672 24.4364 13.2813 24.4375Z" fill="white"/>
</g>
<defs>
<clipPath id="clip0_4661_130">
<rect width="34" height="34" fill="white"/>
</clipPath>
</defs>
</svg>
