<svg width="34" height="34" viewBox="0 0 34 34" fill="none" xmlns="http://www.w3.org/2000/svg">
<path d="M9.28263 12.6004C10.8375 12.6004 12.1024 11.3355 12.1024 9.78068C12.1024 8.22584 10.8375 6.96094 9.28263 6.96094C7.72786 6.96094 6.46289 8.22591 6.46289 9.78068C6.46289 11.3354 7.72786 12.6004 9.28263 12.6004Z" fill="white"/>
<path d="M23.285 22.8496C22.7703 22.8496 22.3516 23.2684 22.3516 23.7831C22.3516 24.2978 22.7703 24.7166 23.285 24.7166C23.7998 24.7166 24.2185 24.2978 24.2185 23.7831C24.2185 23.2684 23.7998 22.8496 23.285 22.8496Z" fill="white"/>
<path d="M23.2847 20.5547C21.5047 20.5547 20.0566 22.0029 20.0566 23.7828C20.0566 25.5628 21.5048 27.0109 23.2847 27.0109C25.0647 27.0109 26.5129 25.5627 26.5129 23.7828C26.5129 22.0029 25.0647 20.5547 23.2847 20.5547ZM23.2847 25.3386C22.4269 25.3386 21.7289 24.6407 21.7289 23.7828C21.7289 22.925 22.4269 22.2271 23.2847 22.2271C24.1426 22.2271 24.8405 22.925 24.8405 23.7828C24.8405 24.6407 24.1426 25.3386 23.2847 25.3386Z" fill="white"/>
<path d="M29.0015 22.8513C28.8626 21.9969 28.5245 21.171 28.0237 20.463C27.9456 20.3527 27.9477 20.2046 28.0288 20.0966L29.1304 18.6277L28.4906 17.9879L27.0248 19.0872C26.9164 19.1686 26.7678 19.1703 26.6575 19.0917C25.9567 18.5922 25.1388 18.2522 24.2921 18.1084C24.1588 18.0857 24.0555 17.9796 24.0362 17.8456L23.7732 16.0039H22.8683L22.6052 17.8456C22.586 17.9796 22.4826 18.0857 22.3493 18.1084C21.5004 18.2526 20.7123 18.5779 20.007 19.0755C19.8967 19.1533 19.7489 19.1511 19.641 19.0701L18.1297 17.9367L17.4898 18.5766L18.6209 20.0847C18.7021 20.1929 18.7041 20.3413 18.6256 20.4516C18.1293 21.1498 17.8021 21.9301 17.653 22.771C17.6295 22.9034 17.5237 23.0057 17.3907 23.0247L15.5059 23.2941V24.1988L17.3784 24.4663C17.5129 24.4856 17.6194 24.5898 17.6415 24.7239C17.78 25.5665 18.0974 26.3507 18.5848 27.0548C18.661 27.1649 18.6582 27.3114 18.5779 27.4185L17.4387 28.9375L18.0786 29.5773L19.58 28.4512C19.6892 28.3695 19.8387 28.3682 19.9492 28.4482C20.6489 28.9547 21.4327 29.2899 22.2789 29.4445C22.4106 29.4686 22.5121 29.5742 22.531 29.7066L22.796 31.5612H23.7009L23.9622 29.7318C23.9816 29.5965 24.0869 29.4897 24.2219 29.4684C25.0817 29.3332 25.8814 29.0123 26.5988 28.5143C26.7089 28.4379 26.8556 28.4405 26.9629 28.521L28.4394 29.6285L29.0792 28.9886L27.9849 27.5294C27.9029 27.4201 27.9018 27.2704 27.982 27.1599C28.492 26.4572 28.8405 25.6358 28.9899 24.7842C29.0132 24.6516 29.1191 24.549 29.2524 24.5299L31.0632 24.2712V23.3664L29.2646 23.1094C29.13 23.0902 29.0234 22.9857 29.0015 22.8513ZM23.2846 27.633C21.1615 27.633 19.4343 25.9057 19.4343 23.7827C19.4343 21.6596 21.1615 19.9322 23.2846 19.9322C25.4078 19.9322 27.135 21.6596 27.135 23.7827C27.135 25.9057 25.4078 27.633 23.2846 27.633Z" fill="white"/>
<path d="M4.32616 10.6076C4.44788 11.3478 4.72659 12.0365 5.15478 12.6548C5.23095 12.7649 5.22822 12.9115 5.14787 13.0187L4.15882 14.3374L4.68084 14.8594L5.98406 13.882C6.09316 13.8002 6.24278 13.7989 6.35321 13.8788C6.9678 14.3238 7.65637 14.6182 8.39959 14.7541C8.5312 14.7781 8.63267 14.8837 8.65166 15.0162L8.88163 16.6259H9.6198L9.84664 15.0384C9.86597 14.9031 9.97136 14.7963 10.1064 14.7751C10.8616 14.6563 11.564 14.3744 12.1941 13.937C12.3042 13.8606 12.4508 13.8632 12.5582 13.9437L13.8394 14.9046L14.3614 14.3827L13.4119 13.1168C13.3301 13.0075 13.3289 12.8578 13.4091 12.7473C13.8571 12.1302 14.1632 11.4085 14.2944 10.6605C14.3176 10.5278 14.4236 10.4253 14.5569 10.4062L16.1279 10.1819V9.44356L14.5677 9.22063C14.4331 9.20144 14.3265 9.09692 14.3046 8.96264C14.1826 8.21225 13.8855 7.48683 13.4456 6.8648C13.3676 6.7545 13.3697 6.60655 13.4507 6.49851L14.4066 5.22404L13.8846 4.70209L12.6128 5.65588C12.5044 5.73723 12.3558 5.73895 12.2456 5.66039C11.63 5.22171 10.9116 4.92302 10.168 4.79672C10.0346 4.77407 9.93125 4.66789 9.91205 4.53395L9.68375 2.93555H8.94551L8.71721 4.53395C8.69808 4.66789 8.59462 4.77407 8.46128 4.79672C7.71567 4.92335 7.02352 5.20916 6.40395 5.64618C6.29371 5.72388 6.14582 5.72182 6.03791 5.6408L4.72599 4.6568L4.20404 5.17882L5.18586 6.48795C5.26714 6.59619 5.269 6.74454 5.19057 6.85484C4.75461 7.46811 4.46727 8.15355 4.33639 8.89212C4.31295 9.02447 4.20716 9.12687 4.07408 9.14586L2.4375 9.37968V10.1178L4.06312 10.3501C4.19766 10.3693 4.30418 10.4735 4.32616 10.6076ZM9.28266 6.33867C11.1807 6.33867 12.7247 7.88275 12.7247 9.7807C12.7247 11.6787 11.1806 13.2227 9.28266 13.2227C7.38477 13.2227 5.84062 11.6787 5.84062 9.7807C5.84062 7.88275 7.38477 6.33867 9.28266 6.33867Z" fill="white"/>
<path d="M16.9995 31.3114C9.10743 31.3114 2.68681 24.8907 2.68681 16.9987C2.68681 16.8269 2.54749 16.6875 2.37563 16.6875C2.20384 16.6875 2.06445 16.8269 2.06445 16.9987C2.06445 20.988 3.61803 24.7385 6.4389 27.5593C9.2597 30.3802 13.0102 31.9336 16.9995 31.9336C17.1713 31.9336 17.3107 31.7943 17.3107 31.6225C17.3107 31.4506 17.1713 31.3114 16.9995 31.3114Z" fill="white"/>
<path d="M27.5593 6.43883C24.7385 3.61796 20.988 2.06445 16.9987 2.06445C16.8268 2.06445 16.6875 2.20377 16.6875 2.37557C16.6875 2.54743 16.8268 2.68675 16.9987 2.68675C24.8907 2.68675 31.3114 9.10743 31.3114 16.9994C31.3114 17.1713 31.4506 17.3106 31.6225 17.3106C31.7944 17.3106 31.9337 17.1713 31.9337 16.9994C31.9336 13.0101 30.3802 9.25964 27.5593 6.43883Z" fill="white"/>
<path d="M13.8266 20.0488H12.582V21.2933H13.8266V20.0488Z" fill="white"/>
<path d="M11.9594 20.0488H10.7148V21.2933H11.9594V20.0488Z" fill="white"/>
<path d="M10.0922 20.0488H8.84766V21.2933H10.0922V20.0488Z" fill="white"/>
<path d="M8.22505 20.0488H6.98047V21.2933H8.22505V20.0488Z" fill="white"/>
<path d="M26.2719 9.46875H25.0273V10.7133H26.2719V9.46875Z" fill="white"/>
<path d="M24.4047 9.46875H23.1602V10.7133H24.4047V9.46875Z" fill="white"/>
<path d="M22.5375 9.46875H21.293V10.7133H22.5375V9.46875Z" fill="white"/>
<path d="M20.6704 9.46875H19.4258V10.7133H20.6704V9.46875Z" fill="white"/>
</svg>
