<svg width="34" height="34" viewBox="0 0 34 34" fill="none" xmlns="http://www.w3.org/2000/svg">
<path d="M24.9682 11.5638C24.9682 7.39626 21.5837 4.01172 17.4213 4.01172C13.2588 4.01172 9.86914 7.40142 9.86914 11.5638C9.86914 15.7263 13.2588 19.1108 17.4213 19.1108C21.5837 19.1108 24.9682 15.7263 24.9682 11.5638ZM17.4213 18.5957C13.5422 18.5957 10.3843 15.4429 10.3843 11.5638C10.3843 7.68475 13.5422 4.52687 17.4213 4.52687C21.2952 4.52687 24.4531 7.68475 24.4531 11.5638C24.4531 15.4378 21.3004 18.5957 17.4213 18.5957Z" fill="white"/>
<path d="M20.2906 10.4618H17.6376L18.57 7.48424C18.6473 7.24212 18.467 7 18.2146 7H17.6582C17.5449 7 17.4367 7.05152 17.3646 7.14424L14.253 11.1521C14.0624 11.3942 14.2376 11.7548 14.5467 11.7548H17.2203L15.9839 15.6906C15.8758 16.0358 16.3188 16.2727 16.5506 15.9945L20.5791 11.0697C20.7749 10.8276 20.6049 10.4618 20.2906 10.4618Z" fill="white"/>
<path d="M32.4952 16.7932L31.3361 16.5407C31.2176 16.1029 31.0424 15.6856 30.8106 15.2992L31.4494 14.3101C31.5164 14.2071 31.5009 14.0732 31.4133 13.9907L30.213 12.7904C30.1255 12.7029 29.9915 12.6926 29.8936 12.7544L28.8942 13.3932C28.7088 13.285 28.4924 13.1923 28.2503 13.0995C28.3121 12.6359 28.3533 12.1671 28.3533 11.6983C28.3533 8.59711 27.0294 5.62984 24.7164 3.55893C22.3776 1.46226 19.3485 0.498929 16.2009 0.844081C14.4597 1.02954 12.8421 1.65287 11.4409 2.57499L10.2715 3.06954C9.8697 2.83772 9.44728 2.66257 9.00425 2.54408L8.75183 1.40044C8.72607 1.28196 8.62304 1.19954 8.4994 1.19954H6.7994C6.68092 1.19954 6.57273 1.28196 6.54698 1.40044L6.29455 2.54408C5.84637 2.66257 5.42395 2.83772 5.03243 3.06438L4.0691 2.4462C3.96607 2.37923 3.83213 2.39469 3.7497 2.48226L2.54425 3.68257C2.46183 3.77014 2.44637 3.90408 2.51334 4.00711L3.13667 4.97044C2.90486 5.36711 2.72455 5.79984 2.60092 6.25832L1.50364 6.50044C1.38516 6.5262 1.30273 6.62923 1.30273 6.75287V8.45287C1.30273 8.5765 1.38516 8.67953 1.50364 8.70529L2.60607 8.94226C2.7297 9.4059 2.91001 9.84378 3.14698 10.2456L2.54425 11.178C2.47728 11.2811 2.49273 11.415 2.58031 11.4974L3.78061 12.6977C3.86819 12.7853 4.00213 12.7956 4.10001 12.7338L5.04789 12.1259C5.46001 12.3629 5.89789 12.5432 6.35122 12.6565L6.59334 13.7538C6.61395 13.8362 6.67061 13.898 6.74273 13.9341C7.13425 15.7938 7.99455 17.535 9.27728 18.9671C10.3539 20.1726 11.1627 21.6098 11.6985 23.2377C11.3121 23.4489 11.0442 23.861 11.0442 24.3298V25.5817H9.84395C9.6997 25.5817 9.58637 25.695 9.58637 25.8392C9.58637 25.9835 9.6997 26.0968 9.84395 26.0968H11.0442V27.8535H9.84395C9.6997 27.8535 9.58637 27.9668 9.58637 28.111C9.58637 28.2553 9.6997 28.3686 9.84395 28.3686H11.0442V29.6204C11.0442 30.3107 11.6058 30.8723 12.2961 30.8723H13.4036L14.2433 32.5671C14.4442 32.9741 14.8512 33.2265 15.3046 33.2265H19.5442C19.9976 33.2265 20.4046 32.9741 20.6055 32.5671L21.4452 30.8723H22.5476C23.2379 30.8723 23.7994 30.3107 23.7994 29.6204V28.3686H24.9997C25.1439 28.3686 25.2573 28.2553 25.2573 28.111C25.2573 27.9668 25.1439 27.8535 24.9997 27.8535H23.7994V26.0968H24.9997C25.1439 26.0968 25.2573 25.9835 25.2573 25.8392C25.2573 25.695 25.1439 25.5817 24.9997 25.5817H23.7994V24.3298C23.7994 23.8662 23.5418 23.4644 23.1658 23.248C23.2327 23.0523 23.2997 22.8617 23.377 22.671L23.6912 22.4701C24.1033 22.7071 24.5412 22.8823 24.9946 23.0007L25.2418 24.0929C25.2676 24.2114 25.3706 24.2938 25.4943 24.2938H27.1943C27.3179 24.2938 27.4209 24.2114 27.4467 24.0929L27.6888 22.975C28.1421 22.8514 28.5697 22.6659 28.9664 22.4289L29.9246 23.042C30.0276 23.1089 30.1615 23.0935 30.2439 23.0059L31.4443 21.8056C31.5318 21.718 31.5421 21.5841 31.4803 21.4862L30.8467 20.5023C31.0682 20.1056 31.2382 19.6832 31.3567 19.2453L32.4952 18.998C32.6136 18.9723 32.6961 18.8692 32.6961 18.7456V17.0456C32.7012 16.922 32.6136 16.8189 32.4952 16.7932ZM27.4724 15.9535C28.1679 16.3656 28.6058 17.1177 28.6058 17.9317C28.6058 19.2041 27.5703 20.2395 26.2979 20.2395C25.8136 20.2395 25.3397 20.0695 24.943 19.781C25.1749 19.4617 25.417 19.1474 25.6797 18.8486C26.437 17.978 27.0294 16.9992 27.4724 15.9535ZM6.52122 12.1671C6.05243 12.0538 5.60425 11.8632 5.18183 11.6056C5.0994 11.5541 4.99122 11.5541 4.90879 11.6056L3.99698 12.1877L3.09031 11.281L3.66213 10.3795C3.71364 10.2971 3.71364 10.1889 3.66213 10.1014C3.38395 9.66348 3.18304 9.17923 3.0594 8.65378C3.03879 8.5559 2.96152 8.48378 2.86364 8.45802L1.81273 8.24166V6.95893L2.86364 6.72711C2.96152 6.7065 3.03364 6.62923 3.0594 6.5365C3.18304 6.0162 3.38395 5.53711 3.65698 5.10438C3.70849 5.02196 3.70849 4.90863 3.65698 4.8262L3.0594 3.89893L3.96607 2.99226L4.89334 3.58469C4.97576 3.6362 5.08395 3.6362 5.16637 3.58469C5.59395 3.32196 6.06789 3.12105 6.57273 3.00257C6.67061 2.98196 6.74273 2.90469 6.76334 2.80681L7.00546 1.70954H8.28819L8.53031 2.80681C8.55092 2.90469 8.62819 2.98196 8.72092 3.00257C9.20516 3.1159 9.67395 3.30651 10.1067 3.57438C10.1118 3.57954 10.117 3.57954 10.1221 3.58469C10.1067 3.60014 10.0861 3.62075 10.0706 3.6362C9.8697 3.82166 9.66879 4.01226 9.48334 4.21317C9.44213 4.25438 9.40607 4.2956 9.36486 4.34196C9.1897 4.53772 9.0197 4.73863 8.85486 4.94469C8.83425 4.97044 8.80849 4.9962 8.78789 5.02196C8.41698 4.85196 8.03576 4.76954 7.64425 4.76954C6.08849 4.76954 4.82122 6.03681 4.82122 7.59772C4.82122 8.76196 5.53213 9.78711 6.6088 10.2095C6.59849 10.2714 6.58819 10.3332 6.58304 10.395C6.58304 10.395 6.58304 10.395 6.58304 10.4001C6.55213 10.6577 6.53667 10.9204 6.52637 11.178C6.52122 11.2501 6.52122 11.3223 6.51607 11.3944C6.51092 11.6365 6.51092 11.8838 6.52122 12.1259C6.52122 12.1362 6.52122 12.1517 6.52122 12.1671ZM6.70152 9.68408C5.88243 9.31317 5.34667 8.51469 5.34667 7.60287C5.34667 6.32529 6.38213 5.28984 7.65455 5.28984C7.93789 5.28984 8.21092 5.3465 8.48395 5.45469C7.60819 6.6962 6.98486 8.13347 6.70152 9.68408ZM20.1521 32.3404C20.0388 32.5671 19.8121 32.7114 19.5546 32.7114H15.3149C15.0573 32.7114 14.8306 32.5671 14.7173 32.3404L13.9909 30.8723H20.8785L20.1521 32.3404ZM23.2946 29.6204C23.2946 30.0274 22.9649 30.3571 22.5579 30.3571H21.2958H13.5736H12.3064C11.8994 30.3571 11.5697 30.0274 11.5697 29.6204V24.3298C11.5697 23.995 11.7964 23.7168 12.1003 23.6241H12.1055C12.1827 23.6035 12.2497 23.5932 12.3115 23.5932H22.5579C22.6249 23.5932 22.697 23.6035 22.7794 23.6344C22.7846 23.6344 22.7846 23.6344 22.7897 23.6344C23.0833 23.7323 23.2997 24.0053 23.2997 24.335V29.6204H23.2946ZM12.3064 23.078C12.2755 23.078 12.2394 23.078 12.2085 23.0832C11.647 21.3832 10.797 19.8841 9.66879 18.6271C8.39122 17.2001 7.56183 15.5053 7.21152 13.6817C7.21152 13.6714 7.21667 13.661 7.21152 13.6507C7.06728 12.8832 7.01061 12.1053 7.03637 11.3274C7.03637 11.281 7.04152 11.2398 7.04152 11.1935C7.05183 10.9462 7.07243 10.6989 7.09819 10.4568C7.11364 10.3435 7.13425 10.2301 7.15486 10.1168L7.16001 10.0807C7.42273 8.39105 8.09243 6.83529 9.07637 5.51135C9.07637 5.51135 9.08152 5.51135 9.08152 5.5062C9.26182 5.26408 9.45243 5.03226 9.65334 4.8056L9.65849 4.80044C9.8594 4.57893 10.0655 4.36257 10.2818 4.1565L10.287 4.15135C10.7249 3.73923 11.1988 3.36317 11.7036 3.02317C13.043 2.13711 14.5885 1.53954 16.2524 1.35923C19.2558 1.02954 22.1406 1.9465 24.3712 3.94529C26.5709 5.91832 27.8382 8.7465 27.8382 11.7035C27.8382 12.2186 27.7918 12.7338 27.7146 13.2386C27.6836 13.4344 27.6527 13.625 27.6115 13.8156C27.6064 13.8517 27.5961 13.8826 27.5858 13.9186C27.5291 14.1917 27.457 14.4544 27.3797 14.7171C27.3333 14.8665 27.287 15.0159 27.2355 15.1653C27.2046 15.258 27.1685 15.3507 27.1324 15.4435C26.7049 16.5614 26.0815 17.602 25.2882 18.5189C24.9585 18.895 24.6597 19.2968 24.3764 19.7089C24.2012 19.9614 24.0415 20.2189 23.8818 20.4817C23.8097 20.6001 23.7427 20.7238 23.6706 20.8474C23.5006 21.1565 23.3409 21.4707 23.1915 21.7901C23.1658 21.8417 23.1452 21.8983 23.1194 21.9498C23.0524 22.1044 22.9803 22.2589 22.9185 22.4135C22.9133 22.4341 22.9185 22.4495 22.9133 22.4701C22.8309 22.6762 22.7433 22.8771 22.6712 23.0935C22.63 23.0883 22.5836 23.0883 22.5424 23.0883H12.3064V23.078ZM32.1861 18.5344L31.0939 18.7714C30.9961 18.792 30.9188 18.8692 30.8982 18.9671C30.7849 19.4668 30.5891 19.9407 30.3315 20.3735C30.28 20.4559 30.28 20.5641 30.3367 20.6465L30.9394 21.5892L30.0327 22.4959L29.1106 21.9086C29.0282 21.852 28.9149 21.852 28.8324 21.9086C28.3997 22.1868 27.9206 22.3877 27.4106 22.5165C27.3127 22.5423 27.2406 22.6144 27.22 22.7123L26.9882 23.7838H25.7055L25.4736 22.7329C25.453 22.635 25.3758 22.5577 25.2779 22.5371C24.7679 22.4238 24.2836 22.2229 23.8303 21.9498C23.7942 21.9292 23.753 21.9138 23.7118 21.9138C23.7221 21.888 23.7324 21.8623 23.7479 21.8417C24.0158 21.2801 24.3146 20.7392 24.6546 20.2292C25.1388 20.5795 25.7106 20.7701 26.303 20.7701C27.8588 20.7701 29.1261 19.5029 29.1261 17.9471C29.1261 16.922 28.5646 15.9792 27.6785 15.4847C27.9 14.8871 28.07 14.2689 28.1833 13.6353C28.4049 13.728 28.5955 13.8259 28.7655 13.9289C28.8479 13.9804 28.9561 13.9804 29.0385 13.9289L29.9967 13.3107L30.9085 14.202L30.2955 15.155C30.2388 15.2374 30.2388 15.3456 30.2955 15.4332C30.5633 15.8607 30.7642 16.3244 30.8827 16.8189C30.9033 16.9168 30.9806 16.9889 31.0785 17.0095L32.1912 17.2517V18.5344H32.1861Z" fill="white"/>
</svg>
