<svg width="361" height="107" viewBox="0 0 361 107" fill="none" xmlns="http://www.w3.org/2000/svg">
<g clip-path="url(#clip0_4048_129)">
<path d="M344.419 23.0656L360.531 0.533767L360.888 0.03125H346.777L337.365 13.2008L344.419 23.0656Z" fill="#FF8D52"/>
<path d="M337.348 32.9167L313.834 0.03125H299.723L300.08 0.533767L323.25 32.9303L300.08 65.3314L299.723 65.8293H313.834L337.348 32.9167Z" fill="#FF8D52"/>
<path d="M360.531 65.3312L344.405 42.7812L337.352 52.646L346.777 65.8291H360.888L360.531 65.3312Z" fill="#FF8D52"/>
<path d="M140.306 0H136.548L136.544 0.00905437H136.295L109.168 65.8524H109.417L109.412 65.866H113.17H120.807H124.565V65.8434H161.398H165.151V53.964H161.398H127.729L134.022 38.6848H161.398H165.151V27.2084H161.398H138.753L145.028 11.9789H161.398H165.151V0H161.398H140.306Z" fill="#7E7E7E"/>
<path d="M108.444 0.00976562L88.3661 48.7494L68.2835 0.00976562H54.0998L34.0173 48.7494L13.9392 0.00976562H0L27.231 65.8531H40.9122L40.9891 65.6675L40.9846 65.663L61.1894 16.6245L81.4893 65.8531H95.2248L122.383 0.00976562H108.444Z" fill="#7E7E7E"/>
<path d="M228.347 19.3804C228.347 8.69628 219.687 0.03125 209.003 0.03125H177.1V65.8293H209.003C219.687 65.8293 228.347 57.1688 228.347 46.4847C228.347 41.206 226.229 36.4208 222.802 32.9303C226.229 29.4398 228.347 24.6546 228.347 19.3759V19.3804ZM209.003 38.7251C209.283 38.7251 209.564 38.716 209.84 38.7025C213.765 39.0148 216.857 42.3016 216.857 46.3081C216.857 50.5229 213.439 53.941 209.224 53.941H188.576V11.571H209.224C213.439 11.571 216.857 14.9891 216.857 19.2039C216.857 23.4187 213.439 26.8367 209.224 26.8367H202.081L197.178 38.7251H209.003Z" fill="#7E7E7E"/>
<path d="M277.602 0.03125H243.15V65.8293H254.627V11.571H277.824C282.039 11.571 285.457 14.9891 285.457 19.2039C285.457 23.4187 282.039 26.8367 277.824 26.8367H268.299L263.396 38.7251H277.602C288.286 38.7251 296.947 30.0646 296.947 19.3804C296.947 8.69628 288.286 0.0357772 277.602 0.0357772V0.03125Z" fill="#FF8D52"/>
<path d="M13.5323 90.4854C14.4966 90.9653 15.2436 91.6399 15.7732 92.5182C16.2984 93.3964 16.5655 94.4105 16.5655 95.5604V100.527C16.5655 102.587 16.0358 104.148 14.9719 105.212C13.908 106.276 12.3462 106.806 10.2863 106.806H4.51867C3.88487 106.806 3.37782 106.62 2.99754 106.245C2.61725 105.873 2.42711 105.375 2.42711 104.76V99.5489H0.0820312V97.068H2.41806V89.7656H10.1822C11.4498 89.7656 12.5635 90.0056 13.5278 90.4854H13.5323ZM13.7134 95.66C13.7134 94.655 13.3829 93.8401 12.7174 93.2153C12.0519 92.5906 11.1827 92.2782 10.1143 92.2782H5.27018V97.0725H10.404V99.5534H5.27018V104.298H10.2093C11.3592 104.298 12.233 103.967 12.8261 103.311C13.4191 102.655 13.7134 101.69 13.7134 100.427V95.6555V95.66Z" fill="#FF8D52"/>
<path d="M28.3898 106.208C27.4481 105.683 26.7192 104.936 26.1986 103.967C25.678 103.003 25.4199 101.885 25.4199 100.622V95.9495C25.4199 94.6819 25.678 93.5682 26.1986 92.6039C26.7192 91.6396 27.4481 90.8926 28.3898 90.363C29.3314 89.8378 30.4179 89.5707 31.6493 89.5707H34.2298C35.4612 89.5707 36.5523 89.8333 37.503 90.363C38.4537 90.8926 39.1871 91.6351 39.7077 92.6039C40.2283 93.5682 40.4864 94.6864 40.4864 95.9495V100.622C40.4864 101.889 40.2283 103.003 39.7077 103.967C39.1871 104.931 38.4537 105.678 37.503 106.208C36.5523 106.738 35.4612 107 34.2298 107H31.6493C30.4179 107 29.3269 106.738 28.3898 106.208ZM34.2298 104.492C35.2349 104.492 36.0543 104.126 36.6881 103.397C37.3219 102.668 37.6388 101.708 37.6388 100.526V96.0491C37.6388 94.863 37.3264 93.9077 36.7017 93.1789C36.0769 92.45 35.253 92.0833 34.2298 92.0833H31.672C30.6488 92.0833 29.8249 92.45 29.2001 93.1789C28.5754 93.9077 28.263 94.8675 28.263 96.0491V100.526C28.263 101.713 28.5754 102.668 29.2001 103.397C29.8249 104.126 30.6488 104.492 31.672 104.492H34.2298ZM31.9934 83.6582H33.8676L37.3491 87.9907H34.8184L32.9441 85.5098L31.0472 87.9907H28.5392L31.9934 83.6582ZM36.1041 84.2422C36.1041 83.966 36.1946 83.7442 36.3712 83.5722C36.5477 83.4001 36.8103 83.21 37.1499 83.0017C37.4577 82.8071 37.675 82.6532 37.8063 82.54C37.9376 82.4268 38.001 82.2819 38.001 82.1008V81.8066C38.001 81.4172 37.7882 81.2226 37.3672 81.2226H36.9552C36.4662 81.2226 36.2263 81.4806 36.2263 82.0012H34.4743C34.4743 80.4258 35.3028 79.6426 36.9552 79.6426H37.3672C39.0241 79.6426 39.8481 80.3669 39.8481 81.8066V82.1008C39.8481 82.4902 39.7485 82.7935 39.5447 83.0153C39.341 83.2326 39.0603 83.459 38.7072 83.6854C38.4627 83.8664 38.2952 83.9977 38.1956 84.0883C38.1006 84.1788 38.0508 84.2875 38.0508 84.4188V84.6361H36.1041V84.2467V84.2422Z" fill="#FF8D52"/>
<path d="M50.1758 89.7695H53.0234V106.805H50.1758V89.7695Z" fill="#FF8D52"/>
<path d="M76.6055 89.7701H79.186L84.931 100.287L90.5311 89.7701H93.1116V106.806H90.3138V95.0488L86.2982 102.496C86.0718 102.885 85.85 103.166 85.6417 103.334C85.4289 103.506 85.1935 103.587 84.9355 103.587H84.1342L79.3897 95.0443V106.801H76.6145V89.7656L76.6055 89.7701Z" fill="#FF8D52"/>
<path d="M121.588 89.6702V90.5484C121.588 91.9926 121.239 93.1289 120.542 93.9574C119.845 94.7859 118.862 95.2069 117.595 95.225C117.613 95.388 117.617 95.6324 117.617 95.9539V100.626C117.617 101.894 117.359 103.007 116.839 103.972C116.318 104.936 115.585 105.683 114.634 106.212C113.683 106.742 112.592 107.005 111.361 107.005H108.78C107.549 107.005 106.458 106.742 105.521 106.212C104.579 105.687 103.85 104.94 103.329 103.972C102.809 103.007 102.551 101.889 102.551 100.626V95.9539C102.551 94.6863 102.809 93.5726 103.329 92.6083C103.85 91.644 104.579 90.897 105.521 90.3673C106.462 89.8422 107.549 89.5751 108.78 89.5751H111.361C112.66 89.5751 113.796 89.8693 114.779 90.4624C115.761 91.0555 116.495 91.8704 116.983 92.9071H117.323C117.844 92.9071 118.247 92.6988 118.541 92.2869C118.835 91.8749 118.98 91.2954 118.98 90.5484V89.6702H121.583H121.588ZM114.774 96.049C114.774 94.8628 114.462 93.9076 113.837 93.1787C113.212 92.4498 112.388 92.0831 111.365 92.0831H108.807C107.784 92.0831 106.96 92.4498 106.336 93.1787C105.711 93.9076 105.398 94.8674 105.398 96.049V100.526C105.398 101.712 105.711 102.668 106.336 103.397C106.96 104.125 107.784 104.492 108.807 104.492H111.365C112.37 104.492 113.19 104.125 113.823 103.397C114.457 102.668 114.774 101.708 114.774 100.526V96.049ZM110.999 83.8301H114.091L111.388 87.9906H108.735L110.999 83.8301Z" fill="#FF8D52"/>
<path d="M129.641 89.7695H132.488V106.805H129.641V89.7695Z" fill="#FF8D52"/>
<path d="M168.429 90.4854C169.394 90.9653 170.141 91.6399 170.67 92.5182C171.196 93.3964 171.463 94.4105 171.463 95.5604V100.527C171.463 102.587 170.933 104.148 169.869 105.212C168.805 106.276 167.243 106.806 165.183 106.806H159.416C158.782 106.806 158.275 106.62 157.895 106.245C157.514 105.873 157.324 105.375 157.324 104.76V99.5489H154.988V97.068H157.324V89.7656H165.088C166.356 89.7656 167.47 90.0056 168.434 90.4854H168.429ZM168.611 95.66C168.611 94.655 168.28 93.8401 167.615 93.2153C166.949 92.5906 166.08 92.2782 165.011 92.2782H160.167V97.0725H165.301V99.5534H160.167V104.298H165.107C166.256 104.298 167.13 103.967 167.723 103.311C168.316 102.655 168.611 101.69 168.611 100.427V95.6555V95.66Z" fill="#FF8D52"/>
<path d="M181.377 106.235C180.997 105.855 180.807 105.357 180.807 104.737V89.7699H193.293V92.2282H183.654V96.8504H192.564V99.3313H183.654V104.347H193.293V106.806H182.898C182.264 106.806 181.757 106.616 181.377 106.235ZM186.18 83.6582H188.055L191.536 87.9907H189.005L187.131 85.5098L185.234 87.9907H182.726L186.18 83.6582ZM190.296 84.2422C190.296 83.966 190.386 83.7442 190.563 83.5722C190.739 83.4001 191.002 83.21 191.341 83.0017C191.649 82.8071 191.867 82.6532 191.998 82.54C192.129 82.4268 192.193 82.2819 192.193 82.1008V81.8066C192.193 81.4172 191.98 81.2226 191.559 81.2226H191.147C190.658 81.2226 190.418 81.4806 190.418 82.0012H188.666C188.666 80.4258 189.494 79.6426 191.147 79.6426H191.559C193.216 79.6426 194.04 80.3669 194.04 81.8066V82.1008C194.04 82.4902 193.94 82.7935 193.736 83.0153C193.533 83.2326 193.252 83.459 192.894 83.6854C192.65 83.8664 192.482 83.9977 192.383 84.0883C192.288 84.1788 192.238 84.2875 192.238 84.4188V84.6361H190.291V84.2467L190.296 84.2422Z" fill="#FF8D52"/>
<path d="M216.473 106.245C216.092 105.873 215.902 105.375 215.902 104.76V89.7656H223.666C224.93 89.7656 226.048 90.0056 227.012 90.4854C227.976 90.9653 228.723 91.6399 229.253 92.5182C229.783 93.3964 230.045 94.4105 230.045 95.5604V100.527C230.045 102.587 229.516 104.148 228.452 105.212C227.388 106.276 225.826 106.806 223.766 106.806H217.998C217.365 106.806 216.858 106.62 216.477 106.245H216.473ZM223.689 104.298C224.839 104.298 225.713 103.967 226.306 103.311C226.899 102.655 227.193 101.69 227.193 100.427V95.6555C227.193 94.6505 226.863 93.8356 226.197 93.2108C225.532 92.5861 224.662 92.2737 223.594 92.2737H218.75V104.298H223.689Z" fill="#FF8D52"/>
<path d="M248.883 102.595H242.114L240.534 106.805H237.592L244.211 89.7696H245.501C246.379 89.7696 246.986 90.1996 247.325 91.0598L253.41 106.805H250.44L248.883 102.595ZM244.55 83.6579H246.424L249.906 87.9904H247.375L245.501 85.5095L243.604 87.9904H241.096L244.55 83.6579ZM246.094 82.6619C245.84 82.5306 245.564 82.345 245.252 82.1005C245.22 82.0688 245.134 82.0054 244.998 81.9058C244.862 81.8108 244.736 81.7338 244.623 81.6885C244.509 81.6387 244.405 81.6161 244.306 81.6161H244.161C243.948 81.6161 243.776 81.7112 243.636 81.8968C243.5 82.0824 243.427 82.3314 243.427 82.6392H241.576C241.576 81.8108 241.802 81.1453 242.259 80.6428C242.712 80.1402 243.305 79.8867 244.034 79.8867H244.206C244.532 79.8867 244.817 79.9501 245.071 80.0814C245.324 80.2127 245.637 80.4073 246.008 80.6654C246.153 80.7786 246.302 80.8827 246.461 80.9823C246.614 81.0819 246.75 81.1272 246.863 81.1272H247.008C247.203 81.1272 247.361 81.0366 247.484 80.8601C247.606 80.6835 247.665 80.439 247.665 80.1312H249.539C249.521 80.9597 249.295 81.6206 248.855 82.1141C248.416 82.6076 247.841 82.8566 247.126 82.8566H246.954C246.628 82.8566 246.343 82.7932 246.089 82.6619H246.094ZM242.92 100.209H248.081L245.523 93.2962H245.501L242.92 100.209Z" fill="#FF8D52"/>
<path d="M261.93 89.7695H264.484L273.099 102.233V89.7695H275.874V106.805H273.294L264.701 94.3918V106.805H261.926V89.7695H261.93Z" fill="#FF8D52"/>
<path d="M311.566 90.4854C312.53 90.9653 313.277 91.6399 313.807 92.5182C314.332 93.3964 314.599 94.4105 314.599 95.5604V100.527C314.599 102.587 314.07 104.148 313.006 105.212C311.942 106.276 310.38 106.806 308.32 106.806H302.553C301.919 106.806 301.412 106.62 301.031 106.245C300.651 105.873 300.461 105.375 300.461 104.76V99.5489H298.125V97.068H300.461V89.7656H308.225C309.493 89.7656 310.606 90.0056 311.571 90.4854H311.566ZM311.752 95.66C311.752 94.655 311.421 93.8401 310.756 93.2153C310.09 92.5906 309.221 92.2782 308.153 92.2782H303.309V97.0725H308.442V99.5534H303.309V104.298H308.248C309.398 104.298 310.271 103.967 310.864 103.311C311.458 102.655 311.752 101.69 311.752 100.427V95.6555V95.66Z" fill="#FF8D52"/>
<path d="M333.437 102.596H326.669L325.089 106.806H322.146L328.765 89.7702H330.055C330.934 89.7702 331.54 90.2003 331.88 91.0604L337.964 106.806H334.995L333.437 102.596ZM329.105 83.6585H330.979L334.46 87.991H331.93L330.055 85.5101L328.159 87.991H325.651L329.105 83.6585ZM327.475 100.21H332.636L330.078 93.2969H330.055L327.475 100.21ZM331.391 80.666H334.021L335.873 84.0252H333.632L331.391 80.666Z" fill="#FF8D52"/>
<path d="M348.503 106.258C347.629 105.764 346.95 105.067 346.47 104.166C345.99 103.265 345.75 102.224 345.75 101.038V89.7695H348.598V100.988C348.598 102.043 348.865 102.889 349.399 103.532C349.933 104.175 350.639 104.492 351.518 104.492H354.121C355.013 104.492 355.732 104.171 356.276 103.532C356.819 102.889 357.091 102.043 357.091 100.988V89.7695H359.938V101.038C359.938 102.224 359.694 103.265 359.209 104.166C358.725 105.067 358.041 105.764 357.163 106.258C356.285 106.751 355.271 107 354.121 107H351.518C350.381 107 349.376 106.751 348.498 106.258H348.503Z" fill="#FF8D52"/>
</g>
<defs>
<clipPath id="clip0_4048_129">
<rect width="360.889" height="107" fill="white"/>
</clipPath>
</defs>
</svg>
